<?xml version="1.0" encoding="UTF-8"?>
<svg fill="#A82038" width="100pt" height="100pt" version="1.1" viewBox="0 0 100 100" xmlns="http://www.w3.org/2000/svg">
 <g>
  <path d="m94.816 36.281c0.10156 0.23438 0.27344 0.45703 0.28125 0.6875 0.10547 2.4805-0.42578 4.75-2.0469 6.7344-1.3906 1.7031-3.1875 2.7305-5.1836 3.4883-1.3516 0.51562-2.7422 0.83984-4.1992 0.875-0.73047 0.015625-1.4648 0.19141-2.1875 0.14062-2.0117-0.13672-4.0352-0.23438-5.9375-1.043-2.7461-1.168-4.5312-3.1562-5.3672-6.0312-0.49609-1.7148-0.39453-3.4219-0.15234-5.1445 0.066406-0.47656 0.3125-0.84766 0.79297-0.95703 0.96875-0.21875 1.9414-0.47656 2.9258-0.5625 1.1094-0.097656 2.2461-0.10156 3.3555 0 1.25 0.11328 2.4844 0.37891 3.7227 0.60547 2.2734 0.42188 4.5352 0.89062 6.8125 1.2969 1.8047 0.32031 3.6367 0.21094 5.457 0.17969 0.53906-0.003906 1.0859-0.16406 1.7266-0.26953zm-2.625 46.27c-1.0156-0.10938-2.0352-0.21484-3.0508-0.36328-1.1992-0.17578-2.3516-0.52344-3.4023-1.1484-0.39844-0.23828-0.84766-0.47266-1.125-0.82422-0.62891-0.79297-1.082-1.6836-1-2.7539 0.011719-0.17578-0.003906-0.35547-0.023437-0.52734-0.10547-0.98828-0.30469-1.9766-0.30859-2.9648-0.003906-3.9375-0.16797-7.8789 0.32031-11.805 0.22656-1.8281 0.31641-3.6758 0.5625-5.5 0.23828-1.793 0.88281-3.4414 2.4141-4.5469 1.4062-1.0117 2.875-1.9375 4.3008-2.9141 1.1875-0.8125 2.4375-1.5547 3.5156-2.4961 1.9961-1.7422 3.0508-3.9844 3.0195-6.6797-0.011718-1 0.054688-2.0078-0.019531-3.0039-0.089843-1.2227-0.22266-2.4492-0.44922-3.6562-0.47266-2.5195-1.3867-4.9141-2.25-7.3203-0.31641-0.88281-0.65234-1.7656-1.0391-2.6211-0.34375-0.76172-0.82031-0.82031-1.5625-0.21875 0.41406 1.1953 0.83594 2.4141 1.2539 3.6367 0.63672 1.8633 1.3203 3.7109 1.8789 5.5977 0.35547 1.2031 0.63672 2.4531 0.73828 3.6992 0.10156 1.2773 0.097656 2.5742-0.12109 3.8672-0.49219 2.9297-1.9102 5.2617-4.293 7.0117-2.6602 1.9492-5.7539 2.5625-8.9492 2.8008-0.72266 0.054688-1.457-0.10937-2.1875-0.14844-1.6016-0.085937-3.1289-0.49609-4.5938-1.1133-1.2461-0.52734-2.4766-1.1172-3.5156-2.0039-1.668-1.4297-2.8438-3.1719-3.4492-5.3203-0.48047-1.707-0.56641-3.4258-0.40234-5.1523 0.16406-1.7266 0.76172-3.3711 1.2969-5.0156 0.82031-2.5156 1.6719-5.0234 2.5078-7.5352 0.054688-0.16016 0.078126-0.32812 0.125-0.52344-0.29297-0.085937-0.53906-0.15625-0.73828-0.21094-0.55078 0.16406-0.84766 0.45312-1.0078 0.96484-0.22266 0.69922-0.54688 1.3633-0.81641 2.0469-0.90625 2.2656-1.668 4.5781-2.1328 6.9805-0.23828 1.2383-0.42188 2.4766-0.55469 3.7305-0.17969 1.707-0.25 3.4023 0.074219 5.082 0.19922 1.0312 0.51562 2.0352 1.1016 2.9531 0.96875 1.5234 2.2852 2.6641 3.7578 3.6523 1.7578 1.1797 3.543 2.3164 5.2734 3.5352 1.2148 0.85547 2.2109 1.9258 2.6719 3.4062 0.44531 1.4453 0.375 2.9531 0.60156 4.4258 0.11719 0.78125 0.14062 1.5742 0.20312 2.3633 0.11328 1.3984 0.32031 2.8008 0.31641 4.1992-0.003906 2.4688 0.14844 4.9375-0.12891 7.4062-0.16016 1.4258-0.011718 2.8711-0.17188 4.3125-0.16797 1.5195-0.84766 2.5977-2.1758 3.2891-1.2188 0.63281-2.5625 0.82422-3.8906 1.0508-0.89453 0.15234-1.7969 0.23438-2.6953 0.375-0.47656 0.074219-0.83984 0.33203-1.0859 0.78906 0.49219 0.085937 0.91797 0.19141 1.3516 0.23438 1.3711 0.13281 2.7383 0.26953 4.1133 0.35156 1.5234 0.09375 3.0508 0.17578 4.5742 0.17188 1.4961 0 2.9883 0.074218 4.4922-0.125 1.2148-0.16016 2.457-0.019532 3.6914-0.19141 1.3867-0.19141 2.793-0.24609 4.2188-0.36328-0.28125-0.60547-0.62109-0.82031-1.2344-0.88672z"/>
  <path d="m48.551 27.418c2.3047-2.0938 5.1172-1.9062 7.1992-0.046875 1.5469 1.3828 2.4922 3.125 3.0781 5.0781 0.59766 1.9922 0.92969 4.0352 0.82812 6.1172-0.14844 3.0859-0.80469 6.0469-2.4453 8.7227-0.93359 1.5273-2.125 2.7695-3.8125 3.4805-1.7852 0.75-3.8906 0.35938-5.3555-1.0703 0.15234-0.03125 0.25391-0.070313 0.35547-0.070313 1.457 0.019532 2.543-0.69141 3.4414-1.7578 1.4844-1.7578 2.2305-3.8555 2.625-6.0664 0.25-1.4023 0.40625-2.8477 0.37109-4.2656-0.058594-2.4609-0.47266-4.875-1.6758-7.082-0.24219-0.44531-0.51562-0.88281-0.83203-1.2773-0.91797-1.1484-2.0664-1.8789-3.7773-1.7617zm-5.0703 53.586c1.1758-0.16406 2.2305-0.71484 3.1367-1.5234 1.5625-1.3984 2.5977-3.1445 3.2656-5.0977 0.85156-2.4844 1.2266-5.0352 1.043-7.6836-0.12109-1.7656-0.41016-3.4688-1.0195-5.1172-0.60156-1.6328-1.4375-3.1328-2.7695-4.2891-1.8438-1.6016-3.9492-2.082-6.2461-0.77734-0.31641 0.17969-0.60547 0.40625-1.0391 0.69922 0.625 0.082031 1.0742 0.09375 1.4922 0.20703 1.4258 0.37891 2.3086 1.4219 3.0156 2.6289 1.4453 2.4727 1.7422 5.2266 1.8242 8 0.03125 1.0391-0.16016 2.0898-0.30859 3.125-0.30469 2.1016-0.93359 4.0898-2.1641 5.8516-1.0273 1.4688-2.2695 2.5938-4.2461 2.5977 1.1484 1.0781 2.5 1.5938 4.0156 1.3789zm14.254-0.14453c0.58594 0.10547 1.207 0.20312 1.7852 0.12109 1.0156-0.14453 1.9219-0.59375 2.7578-1.2227 1.0977-0.82812 1.8984-1.8789 2.5508-3.0547 1.0938-1.9688 1.7227-4.0781 1.9922-6.3242 0.34766-2.8945 0.14453-5.7148-0.79297-8.4688-0.6875-2.0195-1.7266-3.8281-3.5039-5.1172-1.9961-1.4453-4.5977-1.3672-6.5938 0.44531 0.14844 0.027344 0.26172 0.070313 0.375 0.0625 0.9375-0.046875 1.7227 0.27344 2.4609 0.85547 1.0742 0.83984 1.6914 1.9727 2.2188 3.1719 0.70703 1.6211 1.0352 3.3438 1.1445 5.0898 0.1875 3.0156-0.12109 5.9844-1.3867 8.7734-0.39063 0.86328-0.88672 1.7031-1.457 2.457-0.94922 1.2539-2.2227 1.9844-3.8906 1.9492 0.67578 0.67578 1.4531 1.0977 2.3398 1.2617zm-15.691-10.176c-0.41016-0.66797-1.1445-0.79297-1.6992-0.28906-1.0312 0.94141-1.125 3.6953-0.16406 4.7031 0.58594 0.61328 1.1602 0.57031 1.6719-0.125 0.49609-0.67578 0.66016-1.4375 0.60938-2.1289 0.003906-0.95703-0.15625-1.7305-0.41797-2.1602zm16.148-0.09375c-0.43359-0.86719-1.2656-0.875-1.7734-0.039063-0.22656 0.375-0.41797 0.80469-0.5 1.2305-0.19531 1.0273-0.12891 2.043 0.55469 2.9102 0.44141 0.55859 0.85938 0.5625 1.3789 0.082032 0.69141-0.64063 0.72266-1.5234 0.91016-2.5078-0.16016-0.48438-0.29297-1.1172-0.57031-1.6758zm-9.3633-26.211c0.13281 0.46484 0.47656 0.75781 0.95703 0.82812 0.48828 0.070313 0.79297-0.26172 0.99219-0.62109 0.67578-1.2188 0.71094-2.4922 0.15625-3.7617-0.17969-0.41406-0.49219-0.77734-1.0078-0.76562-0.51172 0.011718-0.82422 0.38281-0.98438 0.79688-0.22656 0.58203-0.34766 1.207-0.50391 1.7891 0.14062 0.62891 0.23438 1.1914 0.39062 1.7344zm-40.949 18.207c1.5938-5.457 4.7812-9.2461 5.375-9.9141-0.074218 0.007813-0.15234 0.015625-0.22656 0.023437-1.7656 0.20313-3.4102 0.6875-4.8242 1.8594-1.4062 1.1641-2.4531 2.5938-3.2617 4.1992-2.0469 4.0664-2.7617 8.375-2.1797 12.891 0.42188 3.2656 1.5977 6.2148 3.7305 8.75 1.2344 1.4609 2.7461 2.4688 4.6719 2.75 0.35547 0.050781 0.70703 0.10547 1.0625 0.15625-2.5234-3.2656-4.1602-6.7031-4.8672-10.238-0.68359-3.4258-0.51172-6.9492 0.51953-10.477zm14.652-0.085938c-1.6133 5.4531-1.9414 13.684 5.4844 22.152 0.078125 0 0.15625 0 0.23438-0.003906 1.1953-0.027344 2.3867-0.11328 3.582-0.19922-3.0547-3.6133-4.9961-7.4609-5.7656-11.457-0.66797-3.457-0.46484-7.0312 0.59766-10.617 1.5195-5.125 4.3984-8.8281 5.3008-9.9062h-3.9883c-0.47266 0.53125-3.7852 4.418-5.4453 10.031zm-10.742 10.496c-0.65234-3.457-0.43359-7.0312 0.65625-10.617 1.5352-5.0586 4.3945-8.7344 5.3477-9.8633l-4.2109 0.36719c-0.4375 0.48828-3.7227 4.2891-5.3359 9.8281-1.4844 5.0898-1.8047 12.672 4.5312 20.672 1.457 0.21484 2.918 0.42578 4.3789 0.61719-2.8359-3.4805-4.6445-7.1758-5.3672-11.004zm6.4531-20.906h0.007812 1.6445c-3.5586-10.004-2.6055-17.734-1.168-22.477 0.76172-2.5156 1.7422-4.4766 2.5469-5.8359-0.30078 0.046875-0.59766 0.09375-0.89844 0.14062-1.3008 0.20312-2.3945 0.83203-3.3984 1.6406-1.4922 1.2031-2.5938 2.7227-3.4141 4.4336-1.2617 2.6211-1.8047 5.4258-1.9492 8.3086-0.089843 1.8203 0.12891 3.6211 0.54688 5.3945 0.75781 3.1992 2.1133 6.0742 4.5781 8.3359 0.039063 0.035156 0.058594 0.097656 0.085938 0.17578l1.4062-0.12109c0.003906 0.003906 0.007812 0.003906 0.011719 0.003906zm18.09-22.477c1.0938-3.6094 2.6289-6.0742 3.4688-7.2539-1.1875-0.035156-2.375-0.058594-3.5625-0.074219-0.74609 0.99219-2.4531 3.5391-3.6367 7.4609-1.4219 4.6992-2.3594 12.387 1.2148 22.344h3.6836c-3.5586-10.004-2.6055-17.738-1.168-22.477zm-11.957 22.477h9.0352c-3.5586-10.004-2.6055-17.734-1.168-22.477 1.1211-3.6914 2.6992-6.1914 3.5273-7.3359-0.26953-0.003906-0.54297-0.007813-0.8125-0.011719-0.73047-0.011719-1.4609 0.10938-2.1914 0.125-1.7539 0.035156-3.5 0.11719-5.2344 0.39453-0.41016 0.066406-0.81641 0.12891-1.2266 0.19531-0.85547 1.2695-2.1758 3.5586-3.1445 6.7617-1.4219 4.7031-2.3594 12.391 1.2148 22.348zm9.3047 0.38281h-1.2109c-0.46484 0.52344-3.7812 4.4102-5.4414 10.027-1.5977 5.4023-1.9375 13.531 5.2773 21.918 0.45703-0.035157 0.91406-0.066407 1.375-0.09375 1.1133-0.070313 2.2266-0.13281 3.3359-0.22656 0.49609-0.042968 0.98438-0.15625 1.5898-0.25781-0.20703-0.15625-0.32422-0.25391-0.44922-0.33984-1.75-1.2422-3.1055-2.832-4.1094-4.7188-1.9648-3.6953-2.6875-7.6367-2.3672-11.809 0.17969-2.3438 0.67187-4.5859 1.582-6.75 1.0469-2.4883 2.5156-4.6641 4.7422-6.2383 0.94531-0.66797 1.9414-1.1797 2.9961-1.4805l-3.2344-0.035156zm-11.512 9.9062c1.5195-5.125 4.3984-8.8281 5.3008-9.9062h-9.1367c-0.46875 0.52344-3.8242 4.4102-5.5273 10.031-1.6133 5.3242-2.0039 13.305 4.9023 21.57 0.17969 0.023437 0.35547 0.046875 0.53516 0.070312 1.4492 0.17969 2.9141 0.25391 4.3711 0.37109 0.31641 0.023437 0.63672 0.019531 0.95703 0.027344 1.3125 0.035156 2.625 0.11719 3.9375 0.12109-3.1562-3.6719-5.1562-7.5898-5.9414-11.664-0.66406-3.4609-0.46094-7.0352 0.60156-10.621zm26.707-39.348c-2.2188-0.19922-4.4336-0.45312-6.6562-0.57031-0.65234-0.035157-1.3008-0.0625-1.9531-0.082032-0.77734 1.0469-2.4219 3.5625-3.5703 7.3711-1.4219 4.6992-2.3594 12.387 1.2148 22.344l7.4922 0.082031c-0.125-0.14453-0.21484-0.24219-0.29297-0.35156-0.69922-0.98438-1.4648-1.9336-2.0781-2.9688-1.6328-2.7422-1.9492-5.8203-2.0898-8.918-0.066406-1.5 0.13281-2.9844 0.33594-4.4688 0.34766-2.5547 1.125-4.9648 2.3906-7.207 1.0352-1.832 2.4062-3.3672 4.2266-4.4688 0.37109-0.22266 0.76562-0.40625 1.1797-0.625-0.10938-0.078125-0.15234-0.13281-0.19922-0.13672zm-26.074 6.582c0.91016-3.0039 2.125-5.2148 2.9922-6.5508-1.3398 0.21484-2.6836 0.42578-4.0273 0.63672-0.82422 1.3398-1.875 3.375-2.6797 6.043-1.4219 4.6992-2.3594 12.387 1.2148 22.344h3.668c-3.5586-10-2.6055-17.734-1.168-22.473z"/>
 </g>
</svg>
