<?xml version="1.0" encoding="UTF-8"?>
<svg fill="#A82038" width="100pt" height="100pt" version="1.1" viewBox="0 0 100 100" xmlns="http://www.w3.org/2000/svg">
 <g fill-rule="evenodd">
  <path d="m72.453 8.3359c-0.089844 0-0.17969 0.023437-0.26562 0.0625l-1.1211 0.5c-0.24219 0.10547-0.40625 0.33984-0.42578 0.60156l-0.17188 2.3477-0.87109 1.1406c-0.14453 0.19141-0.18359 0.44141-0.10547 0.66797 0.074218 0.22656 0.25781 0.40234 0.49219 0.46484l-1.1523 2.4297c-0.0625 0.13672-0.082031 0.28906-0.054687 0.4375l0.45703 2.5977-2.4414 5.668-1.5039-0.20312-1.3203-1.4883c-0.070312-0.074219-0.15234-0.13672-0.24609-0.17578l-5.332-2.3906-2.4844-2.1719 1.4062-2.5508c0.10938-0.19141 0.12109-0.42188 0.035156-0.62891h0.085938c0.38281 0 0.69922-0.30078 0.71875-0.67969l0.046875-0.84766 0.91016-0.67188c0.3125-0.23047 0.38672-0.66797 0.16797-0.98828l-0.8125-1.1875c-0.11719-0.16797-0.30078-0.28125-0.50391-0.30469-0.20313-0.027344-0.41016 0.035156-0.56641 0.17188l-0.59375 0.51562c-0.17578-0.16406-0.42188-0.23047-0.65625-0.17969l-1.3047 0.30469-1.0469-0.74609c-0.21875-0.15625-0.50391-0.17969-0.74219-0.0625l-0.83203 0.41797-0.082031-0.32812c-0.097657-0.36328-0.44922-0.58984-0.82031-0.52734l-0.92188 0.15234-3.3711-1.3633c-0.31641-0.125-0.67969-0.015624-0.87109 0.26563s-0.15625 0.66016 0.082031 0.90625l1.1992 1.25-2.3438 0.27344h-0.89844c-0.085937 0.003906-0.17188 0.019531-0.25391 0.046875l-1 0.375c-0.24609 0.09375-0.42188 0.31641-0.45703 0.57812-0.22656-0.007813-0.44141 0.085937-0.58594 0.25781-0.14453 0.16797-0.20312 0.39844-0.15625 0.61719l0.24219 1.1289-0.96484 0.35156c-0.16406 0.058594-0.30078 0.17188-0.38672 0.32031l-0.99609 1.7461c-0.19141 0.33984-0.082031 0.76953 0.24609 0.97266l0.94922 0.58594-0.19531 0.25391-2.25-0.82812c-0.125-0.046875-0.26172-0.058594-0.39062-0.03125l-0.44141 0.089844-1.4023-1.8516c-0.12891-0.16797-0.32422-0.26953-0.53906-0.28125l-1.6758-0.085937c-0.17578-0.011719-0.35156 0.042969-0.48828 0.15625l-0.76172 0.60547-0.55469 0.13672c-0.23828 0.0625-0.42969 0.23828-0.50781 0.47656l-0.070313 0.20703-0.11328-0.070312c-0.30469-0.18359-0.69922-0.11719-0.92578 0.16016l-1.2344 1.5039c-0.19531 0.23438-0.21875 0.57031-0.058594 0.83203l-0.25781 0.097657c-0.14453 0.054687-0.26953 0.15234-0.35156 0.28516l-0.97266 1.5c-0.17188 0.26562-0.14844 0.60938 0.050781 0.85156l0.125 0.14844-1.0352-0.46875c-0.24219-0.11328-0.52734-0.082032-0.73828 0.082031-0.21094 0.16016-0.31641 0.42188-0.27344 0.68359l0.09375 0.63281c-0.26562-0.10547-0.57031-0.042969-0.77734 0.16016l-1.8516 1.8516c-0.17969 0.17969-0.25391 0.4375-0.19531 0.68359l0.44141 1.832-2.4727 2.7031-4.2891 2.0625c-0.03125 0.015625-0.058594 0.03125-0.089844 0.046875l-3.4805 2.3242-0.96094-0.13672c-0.19531-0.03125-0.39062 0.023437-0.54688 0.14062l-4.418 3.4492c-0.12891 0.097656-0.21875 0.24219-0.25781 0.39844l-0.125 0.54297c-0.25781-0.17188-0.59375-0.16406-0.83984 0.019531l-0.70703 0.52734c-0.18359 0.13672-0.28906 0.35156-0.28906 0.57812v5.6562c0 0.10547 0.023438 0.21094 0.070312 0.30859l1.7656 3.6914-0.47656 0.71875c-0.17578 0.26562-0.16016 0.61328 0.039063 0.85938l3.1172 3.8086 1.707 3.9258 0.69531 2.4258c0.019531 0.078125 0.054687 0.15234 0.10156 0.21875l2.0391 2.8828 0.38281 1.8047-1.1211 0.625c-0.20703 0.11328-0.34375 0.32422-0.36719 0.55859l-0.17578 1.7656c-0.03125 0.32031 0.15234 0.625 0.44922 0.74219l4.4141 1.7695c0.12109 0.046875 0.25 0.0625 0.37891 0.039062l2.2969-0.35156c0.1875-0.027344 0.35938-0.13281 0.46875-0.28516l2.793-3.7773 7.0664-0.16797c0.30859-0.007813 0.57812-0.21094 0.67188-0.50391l0.95312-3.0273 3.6836-1.4414 9.9805-2.0625 5.5742 2.1641-0.035156 0.14062c-0.066406 0.30078 0.058594 0.60938 0.32031 0.77734l1.1289 0.71484 1.4102 3.4922c0.0625 0.14844 0.16797 0.26953 0.30469 0.35156l0.97266 0.57422c0.20312 0.12109 0.45312 0.13281 0.66797 0.035157 0.21484-0.10156 0.36719-0.30078 0.41016-0.53125l0.14062-0.80469 2.5469-2.7188-0.011719 0.51953-0.9375 1.3672c-0.070312 0.10156-0.11328 0.22266-0.125 0.34766l-0.058593 0.73438-0.42578 0.3125c-0.24219 0.17969-0.34766 0.48828-0.26562 0.77734s0.33203 0.49609 0.63281 0.52344l1.4336 0.125c0.17578 0.015626 0.34766-0.035156 0.48828-0.13672l0.050781-0.035156-0.054688 0.22656c-0.078124 0.33203 0.089844 0.67578 0.40234 0.81641l1.9297 0.88672 0.21094 2.5156c0.015625 0.14844 0.070313 0.28516 0.16406 0.39453l1.9336 2.375c0.082031 0.10156 0.19141 0.17969 0.3125 0.22266l5.8711 2.1211c0.24219 0.089844 0.51172 0.042969 0.71094-0.125l2.0938-1.75 1.5391 2.1211c0.22656 0.30859 0.64453 0.39062 0.96484 0.1875l2.8125-1.7461c0.03125-0.019531 0.058594-0.039062 0.089844-0.066406l0.70312-0.60156 4.0195-0.41406c0.29688-0.03125 0.54297-0.23828 0.625-0.52734l1.3477-4.9727 2.0273-3.5742 3.9141-3.6719c0.078124-0.070312 0.14062-0.16406 0.17969-0.26562l3-7.7422c0.042969-0.11328 0.054687-0.23438 0.042969-0.35156l-0.49219-3.7773 0.48828-3.5234c0.019531-0.14453-0.003907-0.29297-0.070313-0.42188l-2.7461-5.5c-0.054687-0.10547-0.13281-0.19531-0.23438-0.26562l-1.0703-0.75-1.293-3.1758c-0.125-0.30078-0.42969-0.48438-0.75-0.44922l-0.48438 0.054688-1.1055-4.8672c-0.042969-0.17969-0.14844-0.33594-0.30078-0.4375l-5.4805-3.6914-0.64062-4.6172c-0.019531-0.14844-0.085937-0.28516-0.19141-0.39453l-1.043-1.0938 0.11719-3.3828c0.007812-0.19141-0.0625-0.37891-0.19531-0.51953l-1.875-1.9961c-0.17969-0.19141-0.44922-0.26953-0.70703-0.20703l-1.1133 0.28906-0.29688-3.2148c-0.007813-0.078125-0.027344-0.15234-0.058594-0.22266l-2.3086-5.3086c-0.11719-0.26953-0.39062-0.44141-0.69141-0.42969z"/>
  <path d="m72.543 82.895c-0.33203 0.015625-0.60938 0.25781-0.67188 0.58203l-0.35547 1.8086c-0.03125 0.17188-0.003906 0.34766 0.082031 0.49609l0.82031 1.4492 0.16016-0.10938c-0.30859 0.20703-0.41406 0.61328-0.23828 0.94141l0.73828 1.3867 0.42578 0.98828c0.070313 0.15625 0.19141 0.28516 0.33984 0.35938l1.5938 0.79688c0.18359 0.089844 0.40234 0.097656 0.59375 0.019531 0.19531-0.078125 0.34375-0.23828 0.41016-0.4375l0.375-1.1094 0.46484 0.46094c0.17578 0.17578 0.42969 0.25 0.67188 0.19141 0.24219-0.054688 0.4375-0.23438 0.51953-0.46875l0.92969-2.7383c0.019531-0.0625 0.03125-0.13281 0.035156-0.19922l0.13281-3.0039c0.007813-0.23438-0.09375-0.46094-0.28125-0.60156-0.1875-0.14453-0.42969-0.1875-0.65234-0.11719l-2.6875 0.84375-3.0586-1.4688c-0.085937-0.042969-0.17969-0.066406-0.27734-0.070313h-0.070312z"/>
 </g>
</svg>
