<?xml version="1.0" encoding="UTF-8"?>
<svg fill="#A82038" width="100pt" height="100pt" version="1.1" viewBox="0 0 100 100" xmlns="http://www.w3.org/2000/svg">
 <g>
  <path d="m7.457 1.1797c0.011719 0.21094 0.20703 0.39844 0.19531 0.61328-0.007813 0.19141-0.042969 0.46094-0.097656 0.64844-0.050782 0.19531-0.10547 0.45312-0.19922 0.625-0.054688 0.10547-0.15625 0.16016-0.1875 0.26562-0.13281 0.45703 0.63281 0.53516 0.90625 0.72266 0.019531 0.30469 0.070312 0.52344 0.15625 0.81641 0.085937 0.28906 0.13672 0.65625 0.28516 0.91797 0.097656 0.015626 0.45703 0.16406 0.39062 0.30859-0.0625 0.14062-0.27344-0.070312-0.36719 0.027344-0.089843 0.09375 0.16406 0.69922 0.17188 0.83594 0.023437 0.46875-0.085938 0.92187-0.14844 1.3789-0.03125 0.26172-0.082031 0.51172-0.17578 0.75391-0.11328 0.28125-0.16016 0.58203-0.27344 0.86328-0.0625-0.035156-0.125-0.015625-0.18359-0.015625 0.011718 0.28516-0.17578 0.60938 0.019531 0.85547 0.21484 0.27344 0.46094 0.10547 0.48047 0.50781 0.015624 0.29687-0.015626 0.75391-0.13281 1.0312-0.10156 0.25-0.40625 0.37891-0.30078 0.67969 0.15625 0.027344 0.42969-0.09375 0.54688 0.027344 0.10547 0.10547 0.074219 0.31641-0.003907 0.41797-0.20312 0.25391-0.62891-0.003907-0.87109 0.22266-0.22656 0.21094-0.12891 0.56641-0.15234 0.82812-0.023437 0.25-0.13672 0.19141-0.3125 0.26172-0.21094 0.085937-0.3125 0.26953-0.46875 0.4375-0.27734 0.30469-0.33984 0.61719-0.50781 0.99609-0.15234 0.35547-0.38281 0.80078-0.28125 1.1992 0.066407 0.27734 0.27734 0.45703 0.30469 0.76562 0.023438 0.27734-0.17188 0.51172-0.125 0.78906 0.050781 0.32422 0.34375 0.48047 0.57812 0.67187 0.25391 0.20313 0.4375 0.45703 0.70312 0.63281 0.29297 0.19531 0.64844 0.33203 0.91406 0.56641 0.22656 0.19531 0.16406 0.42969 0.17578 0.71094 0.14453 0.0625 0.31641 0.0625 0.45703 0.13672 0.10547 0.054687 0.17188 0.14844 0.26172 0.23828 0.24219 0.23438 0.38281 0.39062 0.53125 0.69141 0.17188 0.34375 0.31641 0.68359 0.58984 0.96484 0.24219 0.25391 0.27344 0.31641 0.27344 0.69531 0 0.097657-0.039063 0.28516 0 0.37109 0.066406 0.15625 0.30078 0.22656 0.39453 0.38672 0.16016 0.27734 0.058594 0.58984 0.12891 0.87891 0.066407 0.26953 0.29688 0.51562 0.19531 0.80859-0.046875 0.13672-0.17578 0.23047-0.22266 0.37109-0.03125 0.089843-0.039063 0.19141-0.058594 0.28125-0.089844 0.35937-0.21875 0.6875-0.17578 1.0547 0.046875 0.40234 0.17578 0.78516 0.30859 1.168 0.1875 0.54297 0.42187 1.2031 0.71875 1.6953 0.16016 0.26562 0.19531 0.42969 0.066406 0.72656-0.09375 0.21094-0.26953 0.34375-0.35938 0.55859-0.12891 0.3125 0.22266 0.58594 0.41406 0.82813 0.19141 0.23828 0.40625 0.48828 0.64453 0.70312 0.28516 0.25781 0.61719 0.44141 0.87891 0.71875 0.52344 0.55469 0.98828 1.1914 1.5117 1.7266 0.49219 0.50391 1.0547 0.90625 1.5898 1.375 0.19531 0.17188 0.39062 0.35938 0.51172 0.59375 0.09375 0.17969 0.12109 0.34375 0.10547 0.55469-0.007813 0.082032-0.14844 0.38281-0.10547 0.35156 0.32031-0.10156 0.42578-0.19531 0.67188 0.070313 0.15625 0.16406 0.22656 0.37891 0.34766 0.5625 0.13281 0.19922 0.3125 0.35937 0.4375 0.58594 0.085938 0.15234 0.16016 0.29688 0.25781 0.4375 0.078125 0.11719 0.26172 0.28125 0.28906 0.40625-0.58594-0.14844-0.73047-1.1133-1.1094-1.2578 0.16406 0.30859 0.22656 0.42188 0.14844 0.77734-0.042969 0.19531-0.09375 0.38672-0.14062 0.58203-0.070313 0.29687-0.19531 0.42578-0.35547 0.68359-0.19141 0.3125-0.023437 0.26562 0.24219 0.33203 0.14063 0.035157 0.28906 0.14063 0.37109-0.003906 0.050782-0.089844-0.023437-0.29297-0.023437-0.38672 0-0.1875 0.050781-0.34375 0.17188-0.48828 0.10547 0.41016 0.70703 0.69922 1.0078 0.96484 0.21875 0.1875 0.375 0.39453 0.5625 0.60938 0.24219 0.28125 0.30469 0.16016 0.62891 0.23438 0.41797 0.09375 0.78125 0.23047 1.0703 0.50781 0.18359 0.17188 0.17188 0.44922 0.48438 0.26172 0.15625-0.09375 0.125-0.28125 0.070312-0.54297 0.21484-0.003906 0.39453 0.25 0.64063 0.15234-0.13281-0.085937-0.21484-0.23438-0.34375-0.33203-0.18359-0.14062-0.46094-0.125-0.45313-0.39062 0.011719-0.40234 0.45703-0.41016 0.42969-0.78125-0.96094-0.023438 0.1875-0.6875-0.21484-1.0234 0.15625 0 0.25391-0.039062 0.38672-0.11328 0.16406-0.089843 0.24609-0.28906 0.41797-0.32812 0.43359-0.10156 0.63672 0.60547 0.93359 0.60547-0.039063-0.17969-0.042969-0.35938-0.078126-0.53516-0.042968-0.22266-0.17187-0.40234-0.10937-0.63281 0.17969 0.26172 0.14062 0.55469 0.24219 0.84766 0.035156 0.10156 0.10156 0.29688 0.19531 0.35547 0.089843 0.058594 0.21094 0.039063 0.30859 0.078125 0.38281 0.16406 0.54297 0.43359 0.92969 0.15625 0.34375-0.25 0.41406-0.43359 0.48438-0.82422 0.14844 0 0.52344 0.019531 0.56641 0.19531 0.035156 0.13281-0.12109 0.26172-0.10938 0.40625 0.22266 0.054688 0.44531 0.054688 0.66406 0.10156 0.27344 0.058594 0.50781 0.21875 0.76953 0.28516 0.26172 0.066406 0.64062 0.13281 0.90234 0.054687 0.16406-0.050781 0.26953-0.21094 0.42969-0.25 0.16016 1.3945-2.7617-0.17578-3.2227 0.0625-0.21484 0.11328-0.5 0.51562-0.74609 0.48438-0.25391-0.035156-0.38281-0.40234-0.62891-0.44141-0.19531-0.03125-0.29688 0.10938-0.43359 0.21875-0.26172 0.21094-0.48047 0.30078-0.82812 0.23828-0.003906 0.19922-0.058594 0.38672-0.24219 0.49609-0.18359 0.10938-0.28125 0.03125-0.1875 0.26953 0.058593 0.15234 0.16797 0.26172 0.32422 0.30469 0.23828 0.070312 0.35156 0.082031 0.46875 0.32031 0.17969 0.37109-0.26562 0.64062 0.10938 0.92969-0.011719-0.003907-0.023437-0.007813-0.035156-0.015625 0.67969 0.20312 1.1406 0.86719 1.2578 1.5469 0.066406 0.39453 0.18359 0.91406 0.44922 1.2266 0.24609 0.28516 0.58203 0.39844 0.87109 0.60156-0.070312 0.078125-0.12891 0.066406-0.22266 0.097656-0.25391 0.078125-0.44141-0.023438-0.66406-0.16406-0.23047-0.14453-0.48047-0.30469-0.69531-0.46875-0.23828-0.18359-0.44531-0.43359-0.71875-0.56641-0.23438-0.11328-0.46875-0.09375-0.67969-0.26562-0.39062-0.32031-0.35938-0.80859-0.12109-1.2305 0.070312-0.12891 0.16797-0.14063 0.14844-0.32031-0.011719-0.11328-0.11719-0.28516-0.17578-0.39062-0.12109-0.20703-0.39062-0.42578-0.65234-0.39062-0.32422 0.039063-0.58203 0.39844-0.61328 0.69922-0.023438 0.24609 0.085937 0.41797 0.15625 0.63672 0.19141 0.58594-0.16406 0.96484-0.17969 1.5234-0.003906 0.13672 0.007813 0.26953 0.10938 0.375 0.12891 0.13281 0.25 0.035156 0.36719 0.12891 0.15234 0.11719 0.16406 0.55078 0.22656 0.73047 0.11719 0.33984 0.23047 0.60547 0.21484 0.96875-0.019531 0.39844-0.042969 0.89062 0 1.2812 0.027344 0.25391 0.1875 0.46484 0.39453 0.60938 0.37891 0.26562 0.69141 0.54688 1.0273 0.875 0.25781 0.25 0.57422 0.40625 0.85547 0.62891 0.24219 0.1875 0.45703 0.39844 0.77344 0.4375 0.23828 0.03125 0.55859 0.03125 0.77344-0.070312 0.26953-0.125 0.42969-0.19141 0.67969 0.050781 0.19922 0.19141 0.25781 0.50391 0.40234 0.73438 0.070312 0.11719 0.19141 0.17969 0.26562 0.27344 0.089844 0.11719 0.074219 0.30078 0.17188 0.42969 0.125 0.16016 0.11328 0.13281 0.046875 0.3125-0.10156 0.26562-0.12891 0.46875-0.13672 0.77344-0.011718 0.29688 0.042969 0.60547-0.17578 0.82422-0.32812 0.33594-0.55078 0.22656-0.85156-0.0625-0.15234 0.10156-0.26172 0.30859-0.36328 0.46484-0.12109 0.1875-0.12891 0.21484 0.082031 0.31641 0.17578 0.089844 0.35156 0.054688 0.25781 0.32031-0.082031 0.23047-0.21875 0.16797-0.40234 0.23047 0.35156 0.52344 0.50781 1.2383 0.62891 1.8633 0.11719 0.61328 0.70703 0.82422 1.2031 1.1133 0.60547 0.35938 0.97656 0.84375 1.2695 1.4727 0.054687 0.11328 0.10156 0.23438 0.16016 0.34766 0.10156 0.18359 0.12109 0.17187 0.32812 0.21484 0.32812 0.070313 0.45312 0.20703 0.56641 0.52734 0.097657 0.27344 0.10938 0.57422 0.24609 0.84375s0.33203 0.44141 0.57031 0.64453c0.44141 0.36719 0.53125 0.86328 0.82031 1.3164 0.16016 0.33984 0.13672 0.35938 0.51953 0.47656 0.23438 0.070313 0.44141 0.13281 0.61328 0.31641 0.21094 0.22656 0.40234 0.49219 0.60156 0.74219 0.18359 0.23047 0.27734 0.54688 0.46484 0.76953 0.28125 0.33203 0.76562 0.13281 1.1016 0.33984 0.19141 0.11719 0.43359 0.55078 0.48438 0.75781 0.054688 0.23047-0.039062 0.50391-0.21875 0.65234-0.1875 0.15234-0.12891 0.32812-0.12891 0.50391 0 0.28125 0.36719 0.49219 0.69141 0.71875 0.15234 0.10547 0.36719 0.31641 0.50781 0.28516 0.09375-0.019531 0.18359-0.14453 0.30469-0.15625 0.12109-0.015624 0.25781 0.03125 0.37109 0.070313 0.23438 0.082031 0.45312 0.23438 0.51953 0.49219 0.078125 0.3125-0.039062 0.76953-0.125 1.0703-0.070312 0.25781-0.23047 0.42578-0.26172 0.70312-0.027343 0.26562-0.027343 0.34375 0.1875 0.51172 0.25781 0.20312 0.47266 0.44141 0.33984 0.8125-0.089844 0.24609-0.38281 0.30078-0.28516 0.59375 0.074219 0.22656 0.25391 0.36328 0.28516 0.62109 0.046875 0.42578-0.74609 1.2148-0.10938 1.5078 0.18359 0.085937 0.47266 0.015625 0.64453 0.16016 0.085938 0.074219 0.22266 0.35547 0.30078 0.46094 0.082031 0.10938 0.19531 0.46094 0.29688 0.51953 0.19531 0.10938 0.78906-0.070312 1.0352-0.09375 0.31641-0.027344 0.60938-0.011719 0.92578 0.003906 0.57812 0.023438 1.1562-0.015625 1.7305 0.03125 0.53906 0.042969 0.86328 0.40234 1.3359 0.45703 0.21484 0.023437 0.41797-0.023438 0.625-0.039063 0.35938-0.03125 0.35938 0.10156 0.64844 0.20312 0.13672 0.050781 0.33203 0.050781 0.46875 0.003906 0.085938-0.03125 0.066406-0.13281 0.16016-0.16406 0.18359-0.066406 0.48047-0.0625 0.66016-0.011719 0.19141 0.058594 0.34766 0.22656 0.54688 0.30469 0.25 0.10156 0.52734 0.11719 0.75781 0.26953 0.33203 0.22266 0.5625 0.53125 0.94922 0.67969 0.42578 0.16016 0.50391 0.34766 0.68359 0.78125 0.15625 0.37109 0.17188 0.66016 0.54297 0.85547 0.54297 0.28125 1.125 0.49609 1.7148 0.64844 0.27344 0.070312 0.46094 0.17578 0.71875 0.25391 0.13672 0.039062 0.33984-0.011719 0.45703 0.039062 0.078125 0.035156 0.10156 0.13281 0.17188 0.15625 0.32422 0.125 0.47656-0.027344 0.83984-0.058594 0.46484-0.035156 1.2031-0.066406 1.6719 0.03125 0.29297 0.0625 0.74609 0.60547 0.87109 0.89844 0.050781 0.11328-0.070313 0.25391 0.03125 0.33984 0.20703 0.17188 0.14844 0.5625 0.36719 0.82812-0.33594 0.27344-0.82812 0.51953-0.18359 0.81641 0.17187 0.082031 0.33203 0.050781 0.50781 0.16406 0.17969 0.11719 0.25781 0.29297 0.45312 0.34766 0.19141-0.12891 0.51562-1.0859 0.86719-0.45312 0.48438-0.62109 0.71484 0.18359 0.99219 0.46094 0.1875 0.1875 0.54688 0.27734 0.76953 0.41406 0.23047 0.14062 0.42188 0.34375 0.65625 0.48047 0.007813-0.082032-0.019531-0.53516 0.19531-0.39063 0.14844 0.10547 0.03125 0.36328 0.10156 0.49219 0.24219 0.4375 0.82422 0.51953 1.1562 0.8125 0.17188 0.15234 0.11328 0.28906 0.22656 0.4375 0.12109 0.16406 0.21484 0.10547 0.36328 0.22266 0.17969 0.14062 0.21875 0.25781 0.4375 0.38281 0.16797 0.097656 0.38281 0.19141 0.53125 0.32422 0.33203 0.28516 0.58984 0.72656 0.86328 1.0664 0.30859 0.38672 0.75 0.78125 0.94141 1.2812 0.20312 0.54688 0.49219 1.0703 0.64844 1.6523 0.11719 0.4375 0.046875 0.94531 0.19531 1.3555-0.18359 0.046875-0.3125 0.30469-0.23828 0.5 0.089844 0.23047 0.60938 0.16797 0.64062 0.36719 0.015625 0.12109-0.34375 0.19531-0.41016 0.37891-0.085937 0.22656 0.085937 0.63281 0.25781 0.79688 0.10547-0.46484 0.30859-0.69141 0.69141-0.24219 0.14453 0.17187 0.38281 0.55859 0.37109 0.76953-0.015626-0.003907-0.085938 0-0.10156 0.003906-0.027344-0.22656-0.17969-0.40234-0.34766-0.53516-0.19141 0.19531 0.085937 0.41016 0.17969 0.62109 0.10547 0.23047 0.046875 0.52734 0.046875 0.78516 2.2383-0.45312 20.523-1.8945 20.523-1.8945 0.027343-0.14844 0.097656-0.26953 0.22266-0.30078 0.15234 0.35156 1.3047-0.09375 1.5039-0.33984 0.12109-0.14453 0.019531-0.21875 0.097657-0.39062 0.10156-0.22656 0.46875-0.47656 0.49609-0.76172 0.019531-0.21875-0.12109-0.38281-0.25391-0.53516 0.09375-0.078124 0.17578-0.18359 0.23438-0.30469-0.019531-0.066406-0.03125-0.14844-0.054688-0.21484-0.21484-0.62891-0.99219-0.26562-1.4531-0.49609-0.45703-0.23438-0.42578-0.71875-0.32422-1.1211 0.070312-0.27734 0.30859-0.97656 0.18359-1.2305-0.14062-0.28516-0.70703-0.1875-0.76953-0.52344-0.058593-0.3125 0.25391-0.21094 0.375-0.42578 0.10156-0.17969-0.085937-0.38281-0.03125-0.49219 0.078125-0.16406 0.36328-0.12109 0.5-0.1875 0.41797-0.19141 0.35938-0.58984 0.60156-0.94531 0.16406-0.24219 0.32812-0.3125 0.38281-0.60938 0.035156-0.20312-0.011718-0.4375 0-0.64453 0.019532-0.38281 0.011719-0.66797 0.40625-0.82031-0.035156-0.17188-0.10156-0.4375-0.17188-0.59375-0.066406-0.14063-0.22656-0.25391-0.27734-0.40234-0.11719-0.33203 0.050781-0.62891 0.38281-0.66016 0.003906-0.074219-0.039062-0.22266-0.078125-0.28516-0.88281-0.066406-0.050781-0.75781 0.26953-1.0586 0.19531-0.18359 0.24609-0.22656 0.35156-0.48828 0.26562-0.66406 0.86719-0.52734 1.207-1.1211 0.058594 0.050782 0.14453 0.046876 0.20312 0.12109 0.23438-0.23828 0.40234-0.55078 0.64062-0.78516 0.12109-0.12109 0.42578-0.24219 0.49609-0.35547 0.25781-0.42578-0.1875-0.83594-0.46875-1.0156-0.36719-0.23828-0.66406-0.48438-0.99219-0.78906-0.074218-0.066406-0.050781-0.19531-0.14062-0.23828-0.070312-0.035156-0.19531 0.035157-0.26953 0.003907-0.26953-0.13281-0.14453 0.015625-0.22656-0.29688-0.046876-0.17969 0.015624-0.40234-0.035157-0.57422-0.050781-0.16016-0.18359-0.23438-0.23047-0.37891-0.054687-0.15625-0.070312-0.3125-0.125-0.44531-0.046874-0.11719-0.089843-0.25781-0.14062-0.39062-0.26172-0.67188-0.82031-1.0312-1.1094-1.6719-0.14453-0.3125-0.34766-0.40625-0.36719-0.79688-0.019531-0.35156-0.003906-0.69141-0.003906-1.043 0 0-16.734-15.688-24.352-22.383-7.6133-6.6953-21.789-18.836-21.789-18.836l-0.019532-30.922z"/>
  <path d="m55.629 93.582c0.23438 0.046875 0.48828 0.54688 0.67188 0.74609 0.24219 0.26172 0.51953 0.4375 0.79688 0.65234 0.37891 0.28906 1.2812 0.94141 0.26172 0.875 0 0.050781-0.011719 0.10547-0.011719 0.16016-0.48828-0.32031-0.73047-0.64844-1-1.1445-0.19531-0.34766-0.78516-0.82812-0.71875-1.2891z"/>
  <path d="m55.613 89.023c0.15234 0.054687 0.30078 0.011718 0.46094 0.015624 0.22266 0.011719 0.28516 0.09375 0.45703 0.21484 0.11719 0.078125 0.26562 0.17578 0.39453 0.21094 0.10938 0.03125 0.23047 0.003906 0.33984 0.042968 0.10547 0.039063 0.16016 0.12109 0.23438 0.19922 0.14844 0.17578 0.28516 0.30859 0.45703 0.46094 0.25781 0.22656 0.30078 0.36328 0.23828 0.69922-0.054687 0-0.14453 0.039062-0.19141 0.019531-0.089844-0.035157-0.10547-0.14844-0.18359-0.20312-0.14844-0.10547-0.42578-0.066406-0.62109-0.097656-0.28516-0.042969-0.45312-0.10156-0.63672-0.30859 0.11719-0.054688 0.22266-0.28906 0.19531-0.40234-0.027343-0.13281-0.26953-0.28125-0.37891-0.34375-0.23047-0.125-0.71875-0.19141-0.76562-0.50781z"/>
  <path d="m51.871 89.188c0.089844 0.035156 0.22656 0.14453 0.31641 0.097656-0.066406-0.097656-0.019531-0.39453-0.13672-0.4375-0.035156-0.015625-0.14062 0.050782-0.16016 0.085938-0.054687 0.10156-0.066406 0.17188-0.019531 0.25391z"/>
  <path d="m47.508 91.055c0.10547 0 0.21875-0.003907 0.32422 0.003906 0.15625 0.26172 0.44141 0.34766 0.70312 0.47266-0.019531 0.054688-0.0625 0.10547-0.082031 0.16016-0.40625 0.019532-0.98438-0.125-1.2539-0.44141 0.13281-0.082031 0.16797-0.125 0.30859-0.19531z"/>
  <path d="m47.848 83.328c-0.17578 0.015625-0.24609 0.22656-0.36328 0.33594-0.16016 0.14844-0.21484 0.085938-0.44141 0.054688-0.49219-0.066406-0.70312 0.41797-1.1602 0.45703-0.26953 0.023438-1.0664-0.066406-1.2188-0.39453-0.066406-0.14453 0.050782-0.26172 0.015626-0.41016-0.042969-0.18359-0.29688-0.30859-0.46875-0.30859-0.011719-0.30078 0.73047-0.03125 0.86719-0.019531 0.37891 0.03125 0.8125-0.019531 1.1523 0.19922 0.14062 0.09375 0.19141 0.26953 0.375 0.30078 0.21094 0.035156 0.41797-0.10938 0.53906-0.23047 0.125-0.125 0.11328-0.19531 0.35547-0.15625 0.125 0.019531 0.22656 0.19141 0.34766 0.17188z"/>
  <path d="m43.969 84.133c-0.17969 0.039063-0.17188-0.1875-0.10938-0.30469-0.078125-0.007813-0.16797 0.023437-0.23438 0.019531-0.09375-0.011718-0.1875-0.070312-0.28906-0.085937-0.003907-0.13281 0.019531-0.41016-0.10938-0.47656-0.19531 0.19531-0.40234 0.11719-0.65625 0.10547-0.19531-0.007813-0.22656 0.035156-0.38672 0.10938-0.21875 0.10547-0.44141 0.070312-0.67578 0.13281 0.21875 0.035157 0.30078 0.48047 0.40234 0.64844 0.14062 0.22656 0.31641 0.35938 0.57422 0.44141 0.39453 0.11719 0.46875-0.058594 0.73828-0.27734 0.20312-0.16406 0.49609-0.32422 0.74609-0.3125z"/>
  <path d="m40.418 83.043c0.12891 0.003906 0.30078-0.0625 0.42188-0.007813 0.078125 0.035156 0.28906 0.27734 0.33984 0.34766-0.15625 0.085938-0.57813 0.14453-0.75781 0.11328 0-0.32031-0.41797-0.20312-0.62891-0.21875 0.14062-0.11719 0.44922-0.26562 0.625-0.30078 0.003906 0.027344-0.003907 0.042969 0 0.066407"/>
  <path d="m48.48 83.371c0.09375 0.10547 0.26953 0.17578 0.39453 0.15625 0.125-0.015625 0.1875-0.13672 0.30078-0.12891 0.074219 0.32031-0.74219 0.41406-0.75781 0.039062 0.027343-0.003906 0.042969-0.058594 0.0625-0.066406z"/>
 </g>
</svg>
