<?xml version="1.0" encoding="UTF-8"?>
<svg fill="#A82038" width="100pt" height="100pt" version="1.1" viewBox="0 0 100 100" xmlns="http://www.w3.org/2000/svg">
 <path d="m15.602 33.801l-0.5-1.5 0.89844-2.1016h-2.1016l-2.1992-1.5-0.30078-3.6992-1.6992-1.8008 1-1.1016 1.6016-0.19922 0.39844-2.3008-1.3008-1.1992-0.19922-1.6992 0.60156-0.69922 1.6016 0.60156 2.6992-2 1.8008 0.80078 2.5-4.3984 1.6016 1-0.19922 1.6016 2.1992 1.1016 0.69922 1.3984 1.3984-2.5v-1.8984l3 0.80078 1.1992-0.10156 1.1992 1 0.30078-2.6016 2.6992-0.60156-0.69922-2.1992 1.3984-1.6992 2.3008 1 4-2.3047 1.5 0.39844 2.3984-0.19922-0.19922 1.3984 3.3984 2 4.3008 0.80078 2.3008-0.19922 1 0.89844-1.6016 2.3008 0.5 1.1016-0.89844 1.5 0.30078 2.3984-1.5-0.39844-1 0.5-1 1h-1.5l-1.3984 1.3008-1.6016 0.19922-0.5 1.1016 0.69922 1.5 1 1.1992-1.1016 1.6016-0.59766 0.49609 0.80078 1.8008 0.19922 2 0.69922 1.1016 3.1016 1.6016 1.6992 0.89844 0.89844 1.1992 4.6016 4.6016 0.10156 1.1992 0.60156 0.30078 0.10156 1.3984 1 1.3984 1.3008 1.3008 1 1.6016 2.1016 1.6016 1 1 1.3008 0.30078 0.89844 0.5h2.6992l1.1016 0.30078 1.6992-0.30078 1.1992 0.60156-0.30078 1-1.8008 1.1992-0.10156 0.60156 0.69922 1.1016h1.3984l2.6992 0.60156 5.5 3 2.1992 1.6016 1.3984 1.5 2.3008 0.60156 1.1992 0.80078 0.5 0.89844-0.19922 1.8008-0.79688 0.98828 0.19922 1.1016-0.39844 0.30078-0.10156 0.39844-1.1992-0.5-1-1.1992-0.60156-1.3008 0.19922-1.1016-0.80078-0.5h-2.1992l-0.39844-0.60156-1.3984-0.69922-0.89844 0.10156-0.60156 0.39844-0.5 1.6992-0.80078 0.90234 0.10156 0.89844-0.30078 1.1016-1 0.69922v1l0.5 0.69922 1.1016 0.19922 2 1.8984 0.39844 0.80078-0.30078 1.7031 0.39844 0.60156-0.5 1-1.1992 0.39844-1.1992 1.1992-0.19922 3.1992-1.9023 1.6016-0.19922 1.5-1 1.3984-2 0.10156-1.5-1.5-0.10156-1.1016 0.30078-0.5 0.89844-0.5 0.80078-1 0.19922-1.3008-0.19922-1.3984 0.39844-0.19922h0.60156l0.69922-0.89844 0.10156-1.3008-0.80078-1.1992-0.60156-2.5-0.69922-1-0.30078-2.1016-0.60156-2.1992-1-0.60156-0.80078 0.5-1.8008-0.39844-0.60156-1.1992-1.3984-0.10156-0.69922-0.69922 0.30078-0.60156 0.19922-1.3984-0.89844-1.1992h-1.4961l-1.1992 0.10156 0.10156-1-1.1992-0.39844-0.70312 0.19531-0.89844-0.5-1.5-2.8008-1.3984-0.10156-1.3984-0.60156-0.89844 0.80078h-1.3008l-0.30078-1.1992-1.1992-0.80078-1.3008-0.19922-2.8008-2.1016-2.8984-3.6992-0.89844-0.30078-0.20703-0.99609-1.3008-1.6992-2-0.10156-0.19922-1.1992-1.8984-1.8008-1.1016-1.3008-1.6016-0.80078 0.10156-2-1.1016-0.69922-0.10156-1.1992-1.3008-2.1016-0.49609-1.0977-0.39844-0.80078-0.60156-1-2.1016-0.60156-1.3984-0.89844-4.6992-1.1992-3.6016 2-0.10156 1.1992-1.0977 1.5zm5.1992 23.598l0.5-0.10156 0.10156-0.60156 0.60156-0.69922-0.60156-0.5-0.19922 0.69922-0.39844 0.19922zm17.801-11.398l0.80078 0.39844-0.30078-0.60156zm-5.6016-4l-0.60156 0.60156 0.80078 0.30078 1.3984-0.5 1.1016 0.10156-0.19922-0.80078-0.69922-0.80078-0.30078 0.5zm-8.6016 34.301l0.5-0.30078 0.69922 0.30078 1-0.39844 0.10156-1.6016 0.39844-1 1.3008 0.10156 0.80078 0.80078h0.80078l0.5-1v-2.6016l0.30078-0.69922-0.30078-2.8008 0.5-2.5-1.6992-1.6016 1.5-1 0.19922-1.1016-0.39844-1.6016-0.89844-1-1-1.8984-0.5 0.5-1.2031-0.89844-1 0.10156-2.5 3-1.1016 0.10156-1.6016-1v1.5l-0.30078 1 1.1016 1.1016 0.30078 1.1016 0.89844 0.80078v1.6016l-1 1.1016 0.39844 0.80078 1.3984 0.10156 0.007812 0.6875-0.80078 1-0.60156 2.3984 0.60156 0.89844 0.69922 2.8984zm44.402 18.5l-0.10156-1.8008 0.69922-0.89844-0.19922-1.5-1.1992-1.7031 1.3008-3.3984 1.3008-1.1992 0.30078-1.8984-1.1016-1.3008-1.8008 1.7969-0.69922-0.10156-1.5-0.80078-1.5 1.6016-3.3008-0.29688-2.6016 0.80078-1.8984-0.39844-1.3008-0.89844-1.5 0.19531-0.89844 0.69922-0.5-0.60156-1.6992 0.80078-0.19922 2.3008 1.5 1.3984 1.5-0.30078 2.6992 1.8008 1.3984 0.39844 1.3008 1.3984 3.1992 1.1055 0.60156-0.39844 1.3984 1 0.30078 1.1016 3.1992 1.3008z" fill-rule="evenodd"/>
</svg>
