<?xml version="1.0" encoding="UTF-8"?>
<svg fill="#A82038" width="100pt" height="100pt" version="1.1" viewBox="0 0 100 100" xmlns="http://www.w3.org/2000/svg">
 <g>
  <path d="m91.398 73.5c-0.19922-0.30078 0-0.5 0.30078-0.5-0.19922 0.10156-0.30078 0.30078-0.30078 0.5"/>
  <path d="m92.699 74.5c0.10156 0.30078 0.19922 0.5-0.10156 0.60156 0.003906-0.20312 0.003906-0.30078 0.10156-0.60156-0.30078 0-0.39844-0.10156-0.60156-0.10156 0.10156 0 0.10156-0.10156 0.19922-0.10156 0-0.10156-0.10156-0.10156-0.10156-0.19922 0.19922 0.10156 0.39844 0.19922 0.60156 0.30078 0.003906 0-0.097656 0.10156-0.097656 0.10156"/>
  <path d="m90.602 75.602c-0.10156-0.39844-0.69922-0.39844-0.80078-0.30078-0.19922 0-0.39844-0.19922-0.39844-0.39844 0.19922 0 0.10156-0.10156 0.19922-0.19922-0.10156 0.10156 0.39844-0.30078 0.19922-0.30078 0.10156 0 0.5 0.30078 0.69922 0.39844-0.10156 0.10156-0.30078 0.10156-0.5 0 0.30078 0.5 0.60156 0 0.60156 0.80078"/>
  <path d="m88.602 76.602l-0.19922-0.19922c0.29688-0.10156 0.097656 0.097656 0.19922 0.19922"/>
  <path d="m80 82.102c0.89844-0.30078 1.8984-0.60156 2.6992-1.1016 0.39844-0.19922 0.89844-0.39844 1.3984-0.60156 0.39844-0.19922 0.80078-0.60156 1.1992-0.5-1 0.5-2.1016 1.1992-3.1016 1.6016-0.5 0.19922-1.1016 0.39844-1.6016 0.60156-0.39844 0.10156-1 0.5-1.3984 0.30078 0.003907-0.30078 0.50391-0.20312 0.80469-0.30078"/>
  <path d="m77.699 82.398c0.60156-0.19922 2-0.80078 2.1992-0.69922 0.10156 0.19922-0.80078 0.5-1.1992 0.69922-0.80078 0.30078-1.6992 0.69922-2.6016 0.69922 0.40234-0.39844 1.1016-0.49609 1.6016-0.69922"/>
  <path d="m73 82.898c0-0.19922-0.10156-0.39844 0-0.60156 0.19922 0.20312 0.30078 0.50391 0 0.60156"/>
  <path d="m95 74.5c-0.19922-0.10156-0.30078 0-0.5 0.10156 0.10156 0.10156 0.10156 0.19922 0.19922 0.30078-0.10156 0-0.30078-0.19922-0.30078-0.19922-0.30078 0.10156-0.19922 0.19922-0.30078 0.30078-0.10156 0.10156-0.30078 0.10156-0.39844 0.10156-0.19922 0.10156 0 0.5-0.5 0.30078 0 0.30078 0 0-0.10156 0.19922 0 0 0-0.10156-0.10156-0.10156l-0.39844 0.39844-0.39844-0.39844h-0.19922c0.10156-0.10156 0.10156-0.60156-0.19922-0.5-0.19922 0.10156-0.10156 0.60156-0.10156 0.80078-0.10156-0.19922-0.19922-0.39844-0.10156-0.5-0.19922-0.10156-0.5-0.30078-0.69922-0.10156 0.39844 0.19922-0.39844 0.60156-0.60156 0.69922 0.10156-0.19922 0.19922-0.89844-0.30078-0.5 0.5 0.39844-0.19922 0.69922-0.5 0.30078v0.39844c-0.10156 0.30078-0.10156 0.60156-0.39844 0.80078-0.10156 0.10156-0.39844-0.30078-0.39844 0.19922 0.30078 0 0.30078 0.30078 0.10156 0.5-0.10156 0.10156-0.69922 0.10156-0.69922 0.10156-0.39844-0.10156-0.89844-0.5-1.3984-0.19922-0.10156-0.5 0.10156-0.10156 0.30078-0.30078 0.19922-0.19922 0.30078-0.39844 0.39844-0.60156 0.30078-0.30078 0.89844-0.39844 0.89844-0.69922 0.10156 0.19922 0.19922 0.30078 0.39844 0.30078 0-0.10156-0.19922-0.39844-0.19922-0.5 0.10156-0.30078 0.39844 0 0.5-0.10156 0.30078-0.19922 0.10156 0 0.10156-0.30078 0-0.19922-0.19922-0.19922-0.10156-0.39844 0.10156-0.19922 0.5-0.5 0.69922-0.69922 0.30078-0.39844 0.5-0.39844 1-0.60156-0.10156 0.10156-0.19922 0.30078-0.30078 0.39844 0.30078-0.10156 0.39844-0.39844 0.5-0.69922h-0.69922c-0.19922 0-0.5 0.19922-0.60156 0.30078-0.19922 0.19922-0.30078 0.5-0.60156 0.69922-0.5 0.30078-0.5 0-0.60156 0.69922-0.60156 0.30078-1 0.89844-1.5 1.1992-1.1016 0.5-2.3008 0.30078-3.5 0.30078h-1.3945c0 0.10156 0.10156 0.19922 0.10156 0.30078-0.30078-0.10156-1.1016-0.39844-0.60156 0.19922-0.19922-0.10156-0.30078-0.10156-0.39844 0.10156 0-0.19922-0.10156-0.30078-0.30078-0.19922v-0.10156h0.19922c-0.10156-0.30078-0.30078-0.19922-0.60156-0.19922 0.30078 0.5 0.5 0.60156 0.19922 1.1016-0.30078 0.60156-0.60156 0.19922-0.19922-0.10156-0.19922 0.10156-0.5 0.30078-0.69922 0.39844 0.19922 0.10156 0.30078 0.19922 0.30078 0.39844-0.10156-0.19922-0.19922-0.19922-0.39844-0.19922 0.10156-0.39844-0.80078-0.30078-1.1016-0.5s-0.39844-0.5-0.80078-0.60156c0 0.10156-0.10156 0.39844 0 0.5 0.10156 0.10156 0.30078-0.19922 0.30078-0.19922 0.19922 0.10156 0.39844 0.39844 0.19922 0.60156-0.10156-0.19922-0.10156-0.30078-0.19922-0.10156-0.19922-0.10156-0.30078-0.10156-0.5 0 0.10156 0.19922 0 0.10156 0 0.30078-0.10156 0-0.19922 0-0.30078-0.10156 0.69922-0.19922-0.19922-0.5-0.39844-0.60156-0.19922 0.50391 0.19922 0.40234 0.19922 0.80469 0.10156 0.5-0.30078 0-0.5 0.19922 0.10156 0.60156-0.89844-0.10156-0.19922-0.39844v0.19922c0.30078-0.10156 0.19922-0.5-0.10156-0.5s-0.5 0.60156-0.69922 0.69922c-0.19922 0.19922-0.60156 0.10156-0.69922 0.39844-0.10156 0.10156 0.10156 0.60156 0.19922 0.80078-0.39844-0.10156-0.19922-0.89844-0.80078-0.80078-0.39844 0-0.30078 0.10156-0.19922 0.39844 0.10156 0.30078 0.5-0.10156 0.10156 0.5 0-0.30078-0.19922-0.39844-0.5-0.5-0.10156 0.39844 0.19922 0.60156 0.10156 1-0.10156-0.10156-0.19922-0.30078-0.30078-0.39844-0.10156 0.19922-1-0.19922-0.69922 0.30078-0.10156-0.10156-0.19922-0.19922-0.39844-0.19922-0.5-0.39844-0.69922 0.69922-0.89844 1-0.10156 0.30078-0.89844 0.89844-0.39844 1-0.19922 0.30078-0.60156 0.60156-0.30078 0.89844 0.19922 0.30078 0.69922 0.19922 0.19922 0.60156 0.30078 0 0.69922-0.10156 1-0.10156v-0.10156h-0.19922c0.30078-0.10156 0.39844-0.30078 0.19922-0.60156 0.30078 0.10156 0.19922 0.60156 0.60156 0.5 0-0.19922-0.10156-0.30078-0.30078-0.30078 0-0.10156 0-0.10156 0.10156-0.19922-0.10156 0-0.19922-0.19922-0.30078-0.19922 0.30078 0 2-0.89844 1.8008 0.19922-0.10156 0.69922-2 0.69922-1.8984 1.1992 0.5-0.39844 1.3984-0.5 2-0.69922 0.60156 0.10156 2.1016 0 2.1992-0.19922 0.10156-0.19922-1.1016 0.10156-1.6992 0.10156 0.10156-0.10156 1-0.10156 0.30078-0.39844-0.10156-0.10156 0-0.19922 0.10156-0.19922s0 0.19922 0.10156 0.19922c0.10156 0 0.30078 0 0.30078 0.19922 0.19922-0.39844 0.60156-0.39844 0.80078-0.60156 0.10156-0.10156 0.19922-0.5 0.19922-0.5 0.19922-0.19922 1-0.10156 1.1992 0.19922 0.5-0.19922 0.89844-0.10156 1.3984-0.30078 0.10156-0.19922 1-1 1.1016-1 0 0.39844 1.3984 0.5 0.69922-0.10156 0.39844 0.19922 0.60156 0.30078 1 0.19922 0.39844-0.10156 0.5-0.39844 0.89844-0.5h0.39844c0.10156 0 0.19922-0.30078 0.19922-0.30078 0.30078-0.10156 0.39844 0.10156 0.5 0.39844 0.60156-0.30078 0.60156-0.39844 0.80078-1 0.39844 0.39844 0.69922 0 1 0.19922-0.19922-0.39844 0.10156-0.10156 0.30078-0.39844 0.19922 0.80078 0.69922-0.60156 1.3008-0.19922 0.19922 0.19922-0.30078 0.30078-0.5 0.39844-0.39844 0.19922-1.1016 0.39844-1.1016 0.39844 0.10156 0.10156 0.60156-0.10156 0.80078-0.19922 0 0 1.6016-0.69922 2-1 0 0 0.10156-0.10156 0.10156-0.19922 0 0-0.5 0.30078-0.69922 0.39844-0.19922 0.10156-0.5 0.19922-0.5 0.10156 0-0.10156 0.39844-0.5 0.80078-0.30078 0.10156-0.10156-0.10156-0.30078-0.10156-0.39844 0-0.10156 0.10156 0.10156 0.19922 0.10156 0.10156 0 0.10156-0.39844 0-0.5 0.30078 0 0.60156-0.10156 0.69922 0.19922 0.10156-0.10156 0.10156-0.10156 0.10156-0.19922l0.1875 0.007812c0.60156 0.10156-0.5 0.30078-0.60156 0.60156-0.10156 0.30078 5.8984-3.3984 5.8984-3.3984 0.30469-0.003906 0.70312-0.20312 0.70312-0.50391"/>
  <path d="m70.398 82.898c0 0.5-0.60156 0.89844-0.89844 1.3008 0.10156-0.10156 0-0.10156 0-0.19922-0.10156 0.19922-0.89844 0.89844-1.1992 0.69922-0.19922-0.10156-0.10156-0.10156 0-0.39844 0.10156-0.30078 0.10156-0.19922 0.19922-0.5 0.19922-0.30078 0.10156-1.1016 0.39844-1.3008 0.10156-0.10156 1-0.10156 1.3008-0.19922 0 0.19922 0 0.39844 0.19922 0.59766"/>
  <path d="m39.5 41.398c-0.30078 0-0.39844 0.19922-0.60156 0.30078-0.30078 0.19922-0.39844 0.19922-0.80078 0.30078-0.39844 0.10156-0.89844 0.30078-1.3008 0.5h-0.19922l0.30078 0.10156c-0.10156 0.30078 0.30078 0.39844 0.19922 0.69922 0-0.5-0.60156-0.30078-0.69922-0.80078l0.10156-0.10156h-0.60156c-1.1992-0.39844-2.8984-0.30078-4.1992 0-0.69922 0.10156-1.3008 0.80078-1.8984 0.39844-0.60156-0.30078-1.1016-0.80078-1.6016-1.1016h0.19922c-0.10156-0.5-0.80078-0.39844-1.1992-0.39844-0.5-0.10156-1-0.30078-1.5-0.39844-1.1992 0-2.3008 0.10156-3.3984 0.10156-1.1016-0.10156-2.1016-0.10156-3.1992 0-1.1016 0.10156-2.1992 0.5-3.3008 0.80078l-2.5 0.80078 0.10156 0.19922v1.1992c0 0.19922 0.10156 0.39844 0.10156 0.5-0.003906 0.10156-0.40234 0.39844-0.50391 0.5 0-0.10156 0 0.5-0.10156 0.5 0.10156 0.10156 0.19922 0 0.19922 0.10156 0.30078 0.19922 0.89844 0.10156 1.3008 0.19922 0.30078 0.10156 0.60156 0.39844 0.5 0.69922-0.10156 0.19922-0.39844 0.19922-0.5 0.39844-0.10156 0.30078 0 0.19922 0.10156 0.5 0.19922 0.69922 0.69922 1.5 0.80078 2.1992 0 0-0.10156 0-0.10156-0.10156 0.10156 0.69922 0.10156 0.80078-0.5 1.3008-0.39844 0.30078-0.89844 0.5-1.3984 0.69922-0.30078 0.20312-0.30078 0.20312-0.40234 0.50391-0.10156 0.30078-0.19922 0.30078-0.5 0.60156-0.19922 0.19922-0.19922 0.39844-0.39844 0.69922-0.19922 0.39844-0.19922 0.39844-0.69922 0.5-1 0.30078-1.8984 0.89844-2.6016 1.5-0.19922 0.19922-0.19922 0.30078-0.30078 0.39844-0.30078 0.19922-0.60156 0.39844-0.89844 0.60156-0.5 0.39844-1.1016 0.69922-1.6016 1.0977l-0.80078 0.30078-0.097656 4.1016h49.898l0.19922 0.19922c-0.10156 0.5 0.5 0.5 0.69922 0.80078 0.10156 0.19922 0.10156 0.39844 0.10156 0.60156 0 0.19922 0.19922 0.30078 0.10156 0.60156 0.30078 0 0.80078 0.10156 1-0.10156 0.10156 0.39844 0.30078 0.19922 0.60156 0.39844 0.10156 0.10156 0.19922 0.30078 0.30078 0.39844 0.10156 0.10156 0.19922 0 0.30078 0.10156 0 0.10156-0.10156 0.10156-0.10156 0.19922 0 0.30078-0.19922 0.19922 0 0.39844 0 0 0.19922 0.10156 0.30078 0.10156 0.10156 0.10156 0.10156 0.19922 0.10156 0.30078 0 0.10156 0.10156 0.30078 0.10156 0.39844 0 0.10156-0.19922 0.10156-0.19922 0.19922 0 0.19922 0.10156 0.5 0.10156 0.60156 0 0.30078 0.10156 0.5 0.19922 0.80078-0.5 0-0.19922 0.39844 0 0.60156 0.30078 0.30078 0.30078 0.60156 0.5 0.89844 0.19922 0.30078 0.19922 0.5 0.5 0.60156 0.19922 0.10156 0.30078-0.10156 0.5 0.10156 0.19922 0.10156 0.30078 0.30078 0.30078 0.5 0.10156-0.10156 0.30078-0.10156 0.39844 0h0.5c0.10156 0 0.19922 0.30078 0.30078 0.30078 0.10156 0 0.39844-0.10156 0.5-0.10156 0 0.5 0.39844 0.60156 0.60156 1v0.10156l9.3008 5.1992-0.39844 1.1016c-0.19922 0.5-0.30078 1-0.5 1.5-0.10156 0.30078-0.80078 1.3008-0.60156 1.6992 0.30078 0.39844 0.60156-0.69922 0.69922-0.80078 0.10156-0.19922 0.30078-0.60156 0.5-0.80078 0.19922-0.19922 0.5-0.10156 0.60156-0.19922 0.19922 0 0.19922 0.10156 0.39844-0.10156 0 0.10156 0.10156 0.10156 0.10156 0.19922l0.30078 0.10156-0.19922-0.39844c0.10156-0.19922 0.10156-0.39844 0-0.5 0.19922 0.10156 0.60156-0.5 0.60156-0.80078 0.19922 0 0.30078-0.10156 0.39844-0.19922 0-0.60156 0.30078-0.19922 0.39844-0.39844 0.10156-0.10156 0.19922-0.30078 0.19922-0.5v-0.39844l-0.89844-1.3984 2.6992-1.8984-0.80078-1.1016 0.19922-11.699h-0.10156l-0.007812-0.41016 2.3008-10.199h-0.10156l-0.19922-0.89844v-0.5h0.10156l-0.10156-10.699-0.19922-0.39844c-0.5-0.30078-0.30078-0.19922-0.39844-0.5-0.10156-0.39844 0-0.39844-0.30078-0.39844-0.80078-0.19922-0.5 0.60156-0.80078 0.89844l-0.30078-0.10156c-0.10156-0.10156-0.10156-0.69922-0.10156-0.89844 0-0.39844 0.19922-0.80078 0.39844-1.1016 0.10156-0.30078 0.39844-0.60156 0.30078-0.89844 0-0.19922-0.19922-0.30078-0.30078-0.5-0.10156-0.30078 0-0.19922 0-0.5 0-0.30078-0.10156-0.60156-0.19922-0.89844-0.19922-0.5-0.19922-0.80078-0.19922-1.3008v-0.5c-0.10156-0.19922-0.30078-0.30078-0.39844-0.5 0-0.19922 0.19922-1 0.30078-1.3008 0-0.19922 0.10156-0.69922 0.19922-0.89844 0.19922-0.39844 0.69922-0.60156 0.80078-1s-0.10156-0.80078-0.19922-1.1992c-0.10156-0.5-0.10156-0.60156 0.10156-1.1016 0.30078-0.69922 0.10156-1.3984-0.39844-2.1016-0.30078-0.39844-0.60156-0.60156-0.60156-1.1016 0-0.39844 0.19922-0.80078 0.19922-1.1992 0-0.30078 0-0.69922 0.10156-1 0.19922-0.60156 0.10156-0.5-0.10156-1-0.19922-0.39844-0.19922-0.60156 0-1.1992 0.10156-0.39844 0.39844-0.80078 0-1.1992l0.10156-0.39844-8.7031 0.39453-2.1016 0.10156h-3.1992l-0.69922-0.003906c-0.19922-0.19922-0.5-0.10156-0.80078-0.10156v-0.19922c-0.30078 0-0.39844 0.19922-0.69922 0.19922-0.10156 0-0.39844-0.19922-0.5 0.10156h0.19922c-0.10156 0.19922-0.5 0.19922-0.69922 0.30078-0.10156 0-0.5 0.39844-0.39844 0.10156-0.30078 0-0.30078 0.30078-0.5 0.39844-0.30078 0.19922-0.30078 0.19922-0.60156 0.30078-0.39844 0.10156-0.80078 0.39844-1.1992 0.60156-0.39844 0.19922-0.89844 0.39844-1.1992 0.60156l-0.39844 0.5c-0.10156 0.19922-0.30078 0.39844-0.39844 0.5-0.80078 0.80078-1.6992 1.3008-2.3984 2.1016-0.80078 0.80078-1.6016 1.5-2 2.6016l-0.10156 0.10156h0.19922l0.19922 0.19922-0.50391 0.79297c0-0.10156 0-0.10156-0.10156-0.19922-0.19922 0.19922-0.39844 0.30078-0.39844 0.5h0.10156c0 0.19922-0.10156 0.30078-0.19922 0.39844v-0.19922c-0.5 0.30078-1.5 1.1016-1.5 1.6992-0.19922-0.19922-1 0.5-1.1992 0.60156-0.30078 0.10156-0.69922 0.19922-0.89844 0.39844-0.30078 0.19922-0.5 0.5-0.89844 0.60156l-0.89844 0.80078h0.10156l-0.007813 0.39844h0.10156c-0.10156 0.10156-0.10156 0.19922-0.10156 0.30078 0.19922 0 0.39844 0 0.5-0.10156-0.10156 0.10156-0.10156 0.19922-0.19922 0.19922 0.69922 0 0.19922 0.39844 0.30078 0.80078 0.10156 0.19922 0.30078 0.10156 0.30078 0.30078s-0.10156 0.39844-0.19922 0.5c0.69922-0.10156 0.5-0.69922 0.89844-1-0.19922-0.10156-0.80078 0.19922-0.80078 0.19922-0.10156-0.19922 0.19922-0.39844 0.10156-0.60156 0.19922-0.10156 0.5-0.30078 0.69922-0.39844-0.30078 0.60156 0.39844 0.19922 0.69922 0.10156 0 0 0 0.10156-0.10156 0.10156h0.10156c-0.10156 0.10156-0.19922 0.30078-0.30078 0.39844 0.19922 0 0.39844-0.10156 0.60156-0.19922-0.30078 0.39844-0.39844 0.39844-0.80078 0.69922-0.30078 0.30078-0.19922 0.30078 0 0.5 0.5 0.39844 0.89844-0.19922 1.1992-0.60156 0 0.39844 0.30078 0 0.60156 0.10156-0.60156-0.10156-0.30078 0.39844-0.60156 0.60156-0.10156-0.30078-0.60156 0.39844-0.60156 0.5-0.10156 0.30078 0.10156 0.39844 0 0.60156-0.19922 0.30078-0.60156 0.19922-0.69922 0.60156-0.10156-0.10156-0.19922-0.10156-0.30078-0.19922 0.10156-0.10156 0-0.30078 0.10156-0.39844-0.30078 0.10156-0.89844 0.19922-0.80078 0.60156 0 0.19922 0.19922 0.10156 0.30078 0.19922 0.10156 0.10156 0.19922 0.19922 0.19922 0.30078 0.10156 0 0.10156 0 0.19922-0.10156-0.10156 0.10156 0 0.19922 0.10156 0.30078l0.30078 1.3008c0 0.5 0.19922 1 0.10156 1.5 0 0.69922 0.10156-0.5 0 0 0 0.69922 0.10156-0.5 0 0 0 0.69922 0 1.1992-0.69922 1.5-0.60156 0.30078-1.1992-0.10156-1.6992 0.10156-0.30078 0.10156-0.39844 0.30078-0.69922 0.5-0.30078 0.19922-0.5 0.30078-0.80078 0.5-0.60156 0.39844-0.89844 0.80078-1.3008 1.3984-0.30469 0.28906-0.40234 0.28906-0.50391 0.28906-0.30078 0 0.10156 0 0 0-0.30078 0 0.10156 0 0 0-0.30078 0 0.10156 0 0 0-0.30078 0 0.10156 0 0 0-0.30078 0 0.10156 0 0 0-0.30078 0 0.10156 0 0 0z"/>
  <path d="m93.102 72c0-0.10156 0.10156-0.19922 0.19922-0.30078 0.19922 0.10156 0.69922-0.30078 1.1016-0.19922-0.10156 0.19922-0.5 0.30078-0.60156 0.39844-0.30078 0.10156-0.5 0.10156-0.69922 0.10156"/>
 </g>
</svg>
